<svg xmlns="http://www.w3.org/2000/svg" height="260.347" width="608.04"><g fill="#fff"><path d="M78.854 180.575h-4.605c-.708 0-1.283.575-1.283 1.284v75.344c0 .71.575 1.284 1.283 1.284h4.605c.709 0 1.283-.575 1.283-1.284V181.86c0-.709-.574-1.284-1.283-1.284M134.145 178.893c-10.898 0-19.788 6.772-24.171 11.563v-8.597c0-.709-.575-1.284-1.284-1.284h-4.604c-.708 0-1.283.575-1.283 1.284v75.344c0 .71.575 1.284 1.283 1.284h4.604c.71 0 1.284-.575 1.284-1.284V198.82c2.848-3.445 11.658-12.932 22.311-12.932 13.015 0 18.239 4.693 18.239 18.859v52.457c0 .71.575 1.284 1.283 1.284h4.605c.708 0 1.283-.575 1.283-1.284V203.24c0-13.545-6.286-24.347-23.55-24.347M161.796 56.273c-11.54 0-15.621 9.97-16.328 14.679h33.912c-1.177-7.3-6.044-14.679-17.584-14.679"/><path d="M553.887.007H54.16C24.248.007 0 24.253 0 54.165v98.082h234.036c-.43.208-.73.639-.73 1.148v37.528c-3.85-4.6-11.423-11.941-24.88-11.941-15.493 0-32.315 12.306-32.315 40.284 0 27.977 16.556 40.992 33.113 40.992 12.436 0 20.727-7.544 24.081-11.297v8.242c0 .71.575 1.284 1.284 1.284h4.604c.71 0 1.283-.575 1.283-1.284V153.395c0-.51-.301-.94-.73-1.148h368.3V54.165c0-29.912-24.247-54.158-54.16-54.158zM233.305 239.004c-2.39 4.089-9.926 14.171-23.55 14.171-17.264 0-26.03-14.166-26.03-33.378s9.031-33.91 25.144-33.91c13.839 0 22.316 11.028 24.436 14.145zM81.646 122.999c-18.616 0-30.02-9.703-33.636-12.818a1.43 1.43 0 01-.302-1.802l8.52-14.711a1.43 1.43 0 012.213-.332c2.628 2.436 9.085 7.696 17.543 9.532 11.157 2.421 17.395-.147 18.202-4.697.808-4.551-3.522-6.386-7.486-7.194-3.963-.806-17.32-2.421-27.303-9.026-9.981-6.606-12.037-22.974-3.743-34.276 8.294-11.302 24.514-11.963 33.909-10.495 8.939 1.397 16.592 5.675 22.92 10.501.557.426.715 1.195.386 1.814l-7.636 14.35a1.426 1.426 0 01-2.223.391c-2.932-2.684-10.496-8.592-20.265-8.592-6.515 0-11.147 2.827-11.147 5.888s2.198 3.69 4.082 4.475c1.885.785 12.325 3.218 20.097 5.26 7.771 2.04 19.86 8.634 19.86 25.12 0 15.936-13.266 26.612-33.99 26.612zm119.009-35.091H145.78s2.199 11.697 13.267 14.444c10.577 2.625 19.147-1.63 25.64-6.601a1.018 1.018 0 011.49.269l8.658 14.079c.244.397.19.902-.132 1.238-2.344 2.438-12.456 11.662-31.26 11.662-21.665 0-40.82-15.23-40.82-43.647 0-28.417 21.273-42.548 39.721-42.548 28.575 0 40.036 26.77 38.31 51.104zm56.981-29.525c0 .876-.807 1.506-1.663 1.324-6.088-1.31-15.929-.196-21.73 7.54v52.145c0 .86-.698 1.557-1.558 1.557h-18.958c-.86 0-1.558-.697-1.558-1.557V40.271c0-.862.698-1.559 1.558-1.559h18.958c.86 0 1.558.697 1.558 1.559v6.552c5.936-6.306 14.722-9.844 21.966-10.383.775-.057 1.427.583 1.427 1.361zm123.255 61.009c0 .86-.698 1.557-1.559 1.557h-18.959c-.86 0-1.557-.697-1.557-1.557V69.015c0-6.495-2.337-11.175-10.373-11.175-7.652 0-13.684 8.423-13.684 8.423v53.129c0 .86-.698 1.557-1.559 1.557h-18.957c-.86 0-1.559-.697-1.559-1.557V69.731c0-8.038-3.048-12-8.828-12-6.597 0-11.58 4.676-14.637 7.994v53.667c0 .86-.698 1.557-1.559 1.557h-18.957a1.558 1.558 0 01-1.559-1.557V40.271c0-.862.697-1.559 1.559-1.559h18.957c.861 0 1.559.697 1.559 1.559v6.552c3.06-2.95 11.77-10.188 23.632-10.188 11.206 0 17.078 6.27 20.013 12.728 6.239-7.486 14.9-12.623 25.248-12.623 18.57 0 22.779 13.357 22.779 24.807v57.845zm52.478 3.52c-25.633 0-40.558-19.26-40.558-43.09 0-23.83 14.925-43.09 40.558-43.09 25.635 0 40.559 19.26 40.559 43.09 0 23.83-14.924 43.09-40.559 43.09zm124.167-3.52c0 .86-.697 1.557-1.557 1.557H537.02c-.86 0-1.559-.697-1.559-1.557V69.271c0-6.58-4.241-11.515-12.032-11.515-6.597 0-12.437 4.65-15.496 7.97v53.666c0 .86-.697 1.557-1.557 1.557h-18.959c-.86 0-1.557-.697-1.557-1.557V40.271c0-.862.697-1.559 1.557-1.559h18.959c.86 0 1.557.697 1.557 1.559v6.552c3.06-2.95 11.771-10.188 23.634-10.188 16.273 0 25.969 9.262 25.969 24.93v57.827"/><path d="M433.37 58.033c-12.275 0-17.813 10.958-17.813 21.79 0 10.83 5.538 21.788 17.812 21.788 12.276 0 17.814-10.958 17.814-21.788 0-10.832-5.538-21.79-17.814-21.79M293.864 178.805c-22.753 0-34.972 21.248-34.972 39.93 0 25.587 15.493 41.612 36.212 41.612 15.628 0 23.76-8.293 28.257-12.998a1.115 1.115 0 00.047-1.491l-2.85-3.375a1.11 1.11 0 00-1.666-.042c-2.448 2.672-10.232 10.082-21.752 10.734-13.119.742-29.217-7.437-30.456-30.545h59.541c.992 0 1.799-.825 1.756-1.816-1.017-23.816-11.924-42.01-34.117-42.01zm-26.915 36.654c.531-17.176 12.042-29.572 27.092-29.572 15.051 0 24.879 12.484 26.207 29.572h-53.299M374.079 218.736l26.672-36.296a1.116 1.116 0 00-.9-1.776h-6.466a.743.743 0 00-.6.305l-23.076 31.624-22.786-31.62a.743.743 0 00-.603-.31h-7.203a1.116 1.116 0 00-.894 1.784l27.001 36.2-28.157 37.882a1.115 1.115 0 00.894 1.781h6.76a.744.744 0 00.603-.308l24.457-33.887 24.326 33.886c.138.194.364.31.602.31h6.798c.92 0 1.445-1.05.893-1.786l-28.321-37.789M417.348 251.15a4.267 4.267 0 10-.001 8.535 4.267 4.267 0 00.001-8.535M451.521 211.351c-7.634 0-12.828 4.804-14.182 6.208v-4.493a.78.78 0 00-.78-.78h-3.482a.78.78 0 00-.78.78v45.201c0 .43.35.78.78.78h3.482a.78.78 0 00.78-.78v-34.18c2.08-2.49 6.784-7.748 13.716-7.748 8.001 0 8.988 6.079 8.988 10.91v31.018c0 .43.349.78.78.78h3.844c.43 0 .778-.35.778-.78v-32.576c0-6.442-3.168-14.34-13.924-14.34M541.055 252.973a1.081 1.081 0 00-1.57-.145c-.973.862-2.64 2.114-4.106 2.114-2.234 0-3.014-2.026-3.014-4.78V217.69h7.248c.56 0 1.014-.454 1.014-1.013v-3.274c0-.559-.454-1.013-1.014-1.013h-7.248v-11.087a.811.811 0 00-.81-.811h-3.782a.812.812 0 00-.812.811v11.087h-5.896c-.56 0-1.013.454-1.013 1.013v3.274c0 .56.453 1.013 1.013 1.013h5.896v32.992c0 6.339 3.742 9.456 8.834 9.456 3.714 0 6.157-2.103 7.208-3.24.358-.388.37-.982.042-1.398l-1.99-2.527M496.152 211.247c-11.743 0-20.939 10.496-20.939 24.004 0 13.509 7.95 24.835 21.926 24.835 9.838 0 14.768-5.469 17.062-8.174a1.053 1.053 0 00-.036-1.4l-1.884-2.031a1.054 1.054 0 00-1.545-.008c-1.79 1.934-6.681 6.47-13.181 6.47-7.69 0-15.795-5.768-16.47-17.042h34.754a1.05 1.05 0 001.045-1.052c-.165-16.922-9.227-25.602-20.732-25.602zm-15.17 21.458c.934-8.989 6.338-16.158 15.274-16.158s14.028 7.534 14.808 16.158h-30.083"/></g></svg>